<svg width="25" height="24" viewBox="0 0 25 24" fill="none" xmlns="http://www.w3.org/2000/svg">
<path fill-rule="evenodd" clip-rule="evenodd" d="M18.0932 16.08C17.3292 16.08 16.6457 16.38 16.123 16.85L8.95611 12.7C9.00637 12.47 9.04658 12.24 9.04658 12C9.04658 11.76 9.00637 11.53 8.95611 11.3L16.0426 7.19C16.5854 7.69 17.2991 8 18.0932 8C19.7618 8 21.1087 6.66 21.1087 5C21.1087 3.34 19.7618 2 18.0932 2C16.4246 2 15.0776 3.34 15.0776 5C15.0776 5.24 15.1179 5.47 15.1681 5.7L8.0816 9.81C7.53881 9.31 6.82513 9 6.03104 9C4.36244 9 3.0155 10.34 3.0155 12C3.0155 13.66 4.36244 15 6.03104 15C6.82513 15 7.53881 14.69 8.0816 14.19L15.2385 18.35C15.1882 18.56 15.1581 18.78 15.1581 19C15.1581 20.61 16.4748 21.92 18.0932 21.92C19.7115 21.92 21.0283 20.61 21.0283 19C21.0283 17.39 19.7115 16.08 18.0932 16.08Z" fill="white" fill-opacity="0.74"/>
</svg>
