<svg width="24" height="24" viewBox="0 0 24 24" fill="none" xmlns="http://www.w3.org/2000/svg">
<path fill-rule="evenodd" clip-rule="evenodd" d="M15.0165 14H14.2512L13.9799 13.73C14.9294 12.59 15.5009 11.11 15.5009 9.5C15.5009 5.91 12.6817 3 9.20369 3C5.72567 3 2.90643 5.91 2.90643 9.5C2.90643 13.09 5.72567 16 9.20369 16C10.7635 16 12.1973 15.41 13.3018 14.43L13.5633 14.71V15.5L18.4074 20.49L19.8509 19L15.0165 14ZM9.20369 14C6.79136 14 4.84405 11.99 4.84405 9.5C4.84405 7.01 6.79136 5 9.20369 5C11.616 5 13.5633 7.01 13.5633 9.5C13.5633 11.99 11.616 14 9.20369 14Z" fill="white" fill-opacity="0.74"/>
</svg>
